<svg width="24" height="25" viewBox="0 0 24 25" fill="none" xmlns="http://www.w3.org/2000/svg">
<g id="&#229;&#185;&#180;&#231;&#186;&#167; 1">
<path id="Vector" d="M21.0068 4.75H3.00684C2.17949 4.75 1.50684 5.42266 1.50684 6.25V20.5C1.50684 21.3273 2.17949 22 3.00684 22H21.0068C21.8342 22 22.5068 21.3273 22.5068 20.5V6.25C22.5068 5.42031 21.8342 4.75 21.0068 4.75ZM21.0068 19.75C21.0068 20.1648 20.6717 20.5 20.2568 20.5H3.75684C3.34199 20.5 3.00684 20.1648 3.00684 19.75V7C3.00684 6.58516 3.34199 6.25 3.75684 6.25H20.2568C20.6717 6.25 21.0068 6.58516 21.0068 7V19.75Z" fill="white" fill-opacity="0.7"/>
<path id="Vector_2" d="M12.0145 9.96484C11.5996 9.96484 11.2645 9.62969 11.2645 9.21484V3.30859C11.2645 2.89375 11.5996 2.55859 12.0145 2.55859C12.4293 2.55859 12.7645 2.89375 12.7645 3.30859V9.21484C12.7645 9.62969 12.427 9.96484 12.0145 9.96484ZM17.2527 9.96484C16.8379 9.96484 16.5027 9.62969 16.5027 9.21484V3.30859C16.5027 2.89375 16.8379 2.55859 17.2527 2.55859C17.6676 2.55859 18.0027 2.89375 18.0027 3.30859V9.21484C18.0027 9.62969 17.6676 9.96484 17.2527 9.96484ZM6.75273 10.0586C6.33789 10.0586 6.00273 9.72344 6.00273 9.30859V3.30859C6.00273 2.89375 6.33789 2.55859 6.75273 2.55859C7.16758 2.55859 7.50273 2.89375 7.50273 3.30859V9.30859C7.50273 9.72344 7.16523 10.0586 6.75273 10.0586ZM4.5332 13.0141C4.5332 12.5992 4.86836 12.2641 5.2832 12.2641H18.7832C19.198 12.2641 19.5332 12.5992 19.5332 13.0141C19.5332 13.4289 19.198 13.7641 18.7832 13.7641H5.2832C4.86836 13.7641 4.5332 13.4289 4.5332 13.0141ZM4.5332 15.993C4.5332 15.5781 4.86836 15.243 5.2832 15.243H18.7832C19.198 15.243 19.5332 15.5781 19.5332 15.993C19.5332 16.4078 19.198 16.743 18.7832 16.743H5.2832C4.86836 16.743 4.5332 16.4055 4.5332 15.993Z" fill="white" fill-opacity="0.7"/>
</g>
</svg>
