<svg width="27" height="27" viewBox="0 0 27 27" fill="none" xmlns="http://www.w3.org/2000/svg">
<g id="&#230;&#138;&#165;&#229;&#145;&#138; 1">
<path id="Vector" d="M11.0143 5.66008V11.4098H5.26458V5.66008H11.0143ZM11.0143 4.22266H5.26458C4.47399 4.22266 3.82715 4.8695 3.82715 5.66008V11.4098C3.82715 12.2004 4.47399 12.8472 5.26458 12.8472H11.0143C11.8049 12.8472 12.4517 12.2004 12.4517 11.4098V5.66008C12.4517 4.8695 11.8049 4.22266 11.0143 4.22266ZM21.795 5.66008V11.4098H16.0453V5.66008H21.795ZM21.795 4.22266H16.0453C15.2547 4.22266 14.6079 4.8695 14.6079 5.66008V11.4098C14.6079 12.2004 15.2547 12.8472 16.0453 12.8472H21.795C22.5856 12.8472 23.2324 12.2004 23.2324 11.4098V5.66008C23.2324 4.8695 22.5856 4.22266 21.795 4.22266ZM11.0143 15.7221V21.4718H5.26458V15.7221H11.0143ZM11.0143 14.2846H5.26458C4.47399 14.2846 3.82715 14.9315 3.82715 15.7221V21.4718C3.82715 22.2624 4.47399 22.9092 5.26458 22.9092H11.0143C11.8049 22.9092 12.4517 22.2624 12.4517 21.4718V15.7221C12.4517 14.9315 11.8049 14.2846 11.0143 14.2846ZM15.3266 22.1905C14.8953 22.1905 14.6079 21.903 14.6079 21.4718V15.7221C14.6079 15.2908 14.8953 15.0034 15.3266 15.0034C15.7578 15.0034 16.0453 15.2908 16.0453 15.7221V21.4718C16.0453 21.8311 15.6859 22.1905 15.3266 22.1905ZM18.8483 22.1905C18.417 22.1905 18.1296 21.903 18.1296 21.4718V15.7221C18.1296 15.2908 18.417 15.0034 18.8483 15.0034C19.2795 15.0034 19.567 15.2908 19.567 15.7221V21.4718C19.567 21.8311 19.2076 22.1905 18.8483 22.1905ZM22.5137 22.1905C22.0825 22.1905 21.795 21.903 21.795 21.4718V15.7221C21.795 15.2908 22.0825 15.0034 22.5137 15.0034C22.9449 15.0034 23.2324 15.2908 23.2324 15.7221V21.4718C23.2324 21.8311 22.8731 22.1905 22.5137 22.1905Z" fill="white" fill-opacity="0.7"/>
</g>
</svg>
