<svg width="27" height="27" viewBox="0 0 27 27" fill="none" xmlns="http://www.w3.org/2000/svg">
<g id="&#230;&#138;&#165;&#229;&#145;&#138; 1">
<path id="Vector" d="M19.2035 23.7963H7.85508C5.63496 23.7963 3.82617 22.057 3.82617 19.9166V8.58477C3.82617 6.44688 5.63232 4.70508 7.85508 4.70508H9.62432V6.22852H7.85508C6.50508 6.22852 5.4082 7.28477 5.4082 8.58477V19.9166C5.4082 21.2166 6.50508 22.2729 7.85508 22.2729H19.2035C20.5535 22.2729 21.6504 21.2166 21.6504 19.9166V8.58477C21.6504 7.28477 20.5535 6.22852 19.2035 6.22852H17.429V4.70508H19.2035C21.4236 4.70508 23.2324 6.44434 23.2324 8.58477V19.9166C23.2324 22.057 21.4236 23.7963 19.2035 23.7963Z" fill="white" fill-opacity="0.7"/>
<path id="Vector_2" d="M15.6512 8.05195H11.4061C10.1062 8.05195 9.04883 7.03379 9.04883 5.78203V4.98477C9.04883 3.73301 10.1062 2.71484 11.4061 2.71484H15.6512C16.9511 2.71484 18.0084 3.73301 18.0084 4.98477V5.78203C18.0084 7.03379 16.9511 8.05195 15.6512 8.05195ZM11.4061 4.24082C10.9789 4.24082 10.6309 4.57598 10.6309 4.9873V5.78457C10.6309 6.1959 10.9789 6.53105 11.4061 6.53105H15.6512C16.0783 6.53105 16.4264 6.1959 16.4264 5.78457V4.9873C16.4264 4.57598 16.0783 4.24082 15.6512 4.24082H11.4061Z" fill="white" fill-opacity="0.7"/>
<path id="Vector_3" d="M13.4818 12.3418H8.44043C8.00273 12.3418 7.64941 12.0016 7.64941 11.5801C7.64941 11.1586 8.00273 10.8184 8.44043 10.8184H13.4845C13.9222 10.8184 14.2755 11.1586 14.2755 11.5801C14.2755 12.0016 13.9195 12.3418 13.4818 12.3418ZM15.1904 15.5664H8.44043C8.00273 15.5664 7.64941 15.2262 7.64941 14.8047C7.64941 14.3832 8.00273 14.043 8.44043 14.043H15.1931C15.6308 14.043 15.9841 14.3832 15.9841 14.8047C15.9841 15.2262 15.6281 15.5664 15.1904 15.5664ZM16.8779 18.8164H8.44043C8.00273 18.8164 7.64941 18.4762 7.64941 18.0547C7.64941 17.6332 8.00273 17.293 8.44043 17.293H16.8806C17.3183 17.293 17.6716 17.6332 17.6716 18.0547C17.6716 18.4762 17.3156 18.8164 16.8779 18.8164Z" fill="white" fill-opacity="0.7"/>
</g>
</svg>
