<svg width="25" height="25" viewBox="0 0 25 25" fill="none" xmlns="http://www.w3.org/2000/svg">
<g id="&#231;&#143;&#173;&#231;&#186;&#167; (1) 1">
<path id="Vector" d="M22.2114 5.56523C21.5132 5.07539 20.6025 4.80352 19.6455 4.80352H3.51758V3.43945C3.51758 2.92148 3.08057 2.50195 2.54102 2.50195C2.00146 2.50195 1.56445 2.92148 1.56445 3.43945V21.0176C1.56445 21.5355 2.00146 21.9551 2.54102 21.9551C3.08057 21.9551 3.51758 21.5355 3.51758 21.0176V19.5762H19.6455C20.6025 19.5762 21.5132 19.3066 22.2114 18.8145C22.9878 18.2684 23.4346 17.4809 23.4346 16.6582V7.72148C23.4346 6.89883 22.9902 6.11367 22.2114 5.56523ZM21.4814 16.6605C21.4814 16.9605 21.2153 17.1926 21.0566 17.3027C20.6978 17.5559 20.1826 17.7012 19.6455 17.7012H3.51758V6.68086H19.6455C20.1826 6.68086 20.6978 6.82617 21.0566 7.0793C21.2153 7.1918 21.4814 7.42383 21.4814 7.72148V16.6605Z" fill="white"/>
<path id="Vector_2" d="M18.105 11.2539H14.626C14.0864 11.2539 13.6494 11.6734 13.6494 12.1914C13.6494 12.7094 14.0864 13.1289 14.626 13.1289H18.105C18.6445 13.1289 19.0815 12.7094 19.0815 12.1914C19.0815 11.6734 18.6445 11.2539 18.105 11.2539ZM8.96191 9.26172C7.27979 9.26172 5.91016 10.5766 5.91016 12.1914C5.91016 13.8062 7.27979 15.1211 8.96191 15.1211C10.644 15.1211 12.0137 13.8062 12.0137 12.1914C12.0137 10.5766 10.6465 9.26172 8.96191 9.26172ZM8.96191 13.2461C8.35645 13.2461 7.86328 12.7727 7.86328 12.1914C7.86328 11.6102 8.35645 11.1367 8.96191 11.1367C9.56738 11.1367 10.0605 11.6102 10.0605 12.1914C10.0605 12.7727 9.56738 13.2461 8.96191 13.2461Z" fill="white"/>
</g>
</svg>
