<svg width="24" height="25" viewBox="0 0 24 25" fill="none" xmlns="http://www.w3.org/2000/svg">
<g id="&#231;&#188;&#150;&#232;&#190;&#145; (1) 1">
<path id="Vector" d="M8.39496 13.2272C8.38247 13.2431 8.36997 13.2598 8.36441 13.2799L7.40103 16.812C7.34476 17.0176 7.40242 17.2391 7.55455 17.3954C7.66847 17.5065 7.81849 17.5677 7.97824 17.5677C8.03103 17.5677 8.08382 17.5614 8.13591 17.5475L11.6429 16.5911C11.6485 16.5911 11.6513 16.5959 11.6554 16.5959C11.6957 16.5959 11.7353 16.5813 11.7652 16.5507L21.1428 7.17446C21.4214 6.8956 21.5742 6.51565 21.5742 6.10236C21.5742 5.63386 21.3755 5.16573 21.0275 4.81875L20.1419 3.93176C19.7946 3.58376 19.3258 3.38477 18.8576 3.38477C18.4444 3.38477 18.0644 3.53759 17.7851 3.81575L8.40885 13.1945C8.39916 13.2035 8.40192 13.2167 8.39496 13.2272ZM20.2253 6.25622L19.2938 7.187L17.7838 5.65298L18.702 4.73471C18.8472 4.58887 19.1285 4.61007 19.2952 4.77743L20.1815 5.66444C20.2739 5.75683 20.3267 5.87975 20.3267 6.0013C20.326 6.101 20.2905 6.19129 20.2253 6.25622ZM10.0627 13.3744L16.8294 6.60734L18.3402 8.1424L11.5859 14.8962L10.0627 13.3744ZM8.82979 16.1181L9.31877 14.3232L10.6232 15.6277L8.82979 16.1181Z" fill="white"/>
<path id="Vector_2" d="M20.8182 9.972C20.4633 9.972 20.1722 10.2606 20.1709 10.6204V19.3622C20.1709 19.8206 19.7986 20.1929 19.3394 20.1929H4.55158C4.09316 20.1929 3.71944 19.8206 3.71944 19.3622V5.09388C3.71944 4.63507 4.09316 4.26243 4.55158 4.26243H14.0758C14.4328 4.26243 14.7225 3.97247 14.7225 3.6154C14.7225 3.2591 14.4328 2.96875 14.0758 2.96875H4.45296C3.33536 2.96875 2.42578 3.87764 2.42578 4.99593V19.4608C2.42578 20.5791 3.33536 21.4877 4.45296 21.4877H19.4374C20.5557 21.4877 21.4649 20.5791 21.4649 19.4608V10.6162C21.4635 10.2606 21.1732 9.972 20.8182 9.972Z" fill="white"/>
</g>
</svg>
